<?xml version="1.0" encoding="UTF-8"?>
<!DOCTYPE svg PUBLIC "-//W3C//DTD SVG 1.1//EN" "http://www.w3.org/Graphics/SVG/1.1/DTD/svg11.dtd">
<svg xmlns="http://www.w3.org/2000/svg" version="1.1" width="342px" height="201px" style="shape-rendering:geometricPrecision; text-rendering:geometricPrecision; image-rendering:optimizeQuality; fill-rule:evenodd; clip-rule:evenodd" xmlns:xlink="http://www.w3.org/1999/xlink">
<g><path style="opacity:0.004" fill="#fefffe" d="M 38.5,-0.5 C 38.8333,-0.5 39.1667,-0.5 39.5,-0.5C 39.3147,0.170143 38.9813,0.170143 38.5,-0.5 Z"/></g>
<g><path style="opacity:0.004" fill="#fefffe" d="M 300.5,-0.5 C 300.833,-0.5 301.167,-0.5 301.5,-0.5C 301.315,0.170143 300.981,0.170143 300.5,-0.5 Z"/></g>
<g><path style="opacity:0.008" fill="#00807f" d="M 300.5,2.5 C 301.833,3.16667 301.833,3.16667 300.5,2.5 Z"/></g>
<g><path style="opacity:1" fill="#464647" d="M 44.5,-0.5 C 45.1667,-0.5 45.8333,-0.5 46.5,-0.5C 87.4946,0.833256 128.828,1.49992 170.5,1.5C 211.833,1.33333 253.167,1.16667 294.5,1C 211.999,0.83299 129.666,0.33299 47.5,-0.5C 130.833,-0.5 214.167,-0.5 297.5,-0.5C 297.393,1.37857 297.893,1.7119 299,0.5C 299.717,1.0442 300.217,1.71087 300.5,2.5C 299.167,2.83333 299.167,3.16667 300.5,3.5C 300.783,4.28913 301.283,4.9558 302,5.5C 302.5,65.4991 302.667,125.499 302.5,185.5C 214.5,186.833 126.5,186.833 38.5,185.5C 38.3333,125.166 38.5,64.8324 39,4.5C 40.8211,2.99149 42.6544,1.32483 44.5,-0.5 Z"/></g>
<g><path style="opacity:1" fill="#252424" d="M 46.5,-0.5 C 46.8333,-0.5 47.1667,-0.5 47.5,-0.5C 129.666,0.33299 211.999,0.83299 294.5,1C 253.167,1.16667 211.833,1.33333 170.5,1.5C 128.828,1.49992 87.4946,0.833256 46.5,-0.5 Z"/></g>
<g><path style="opacity:1" fill="#d1edfb" d="M 44.5,6.5 C 128.5,6.5 212.5,6.5 296.5,6.5C 296.5,57.8333 296.5,109.167 296.5,160.5C 212.5,160.5 128.5,160.5 44.5,160.5C 44.5,109.167 44.5,57.8333 44.5,6.5 Z"/></g>
<g><path style="opacity:1" fill="#e9f6fc" d="M 290.5,149.5 C 290.667,105.832 290.5,62.1654 290,18.5C 262.907,17.505 235.741,17.1717 208.5,17.5C 184.5,17.5 160.5,17.5 136.5,17.5C 107.833,17.5 79.1667,17.5 50.5,17.5C 50.5,61.5 50.5,105.5 50.5,149.5C 49.5013,105.336 49.1679,61.0031 49.5,16.5C 129.834,16.3333 210.167,16.5 290.5,17C 291.832,61.2643 291.832,105.431 290.5,149.5 Z"/></g>
<g><path style="opacity:1" fill="#fdfdfc" d="M 136.5,17.5 C 137.263,18.2679 138.263,18.7679 139.5,19C 137.75,20.7542 137.083,22.9208 137.5,25.5C 144.022,25.8235 150.355,25.4902 156.5,24.5C 157.167,24.5 157.833,24.5 158.5,24.5C 162.833,24.5 167.167,24.5 171.5,24.5C 171.5,23.1667 171.5,21.8333 171.5,20.5C 161.675,19.6698 151.675,19.1698 141.5,19C 158.5,18.3333 175.5,18.3333 192.5,19C 185.987,19.1721 179.653,19.6721 173.5,20.5C 173.5,21.8333 173.5,23.1667 173.5,24.5C 180.167,24.5 186.833,24.5 193.5,24.5C 193.5,23.1667 193.5,21.8333 193.5,20.5C 193.56,19.9569 193.893,19.6236 194.5,19.5C 195.17,21.2914 195.837,22.9581 196.5,24.5C 198.5,24.5 200.5,24.5 202.5,24.5C 203.451,23.0813 203.784,21.4147 203.5,19.5C 201.772,18.2064 203.272,18.2064 208,19.5C 208.464,18.9056 208.631,18.2389 208.5,17.5C 235.741,17.1717 262.907,17.505 290,18.5C 290.5,62.1654 290.667,105.832 290.5,149.5C 210.5,150.833 130.5,150.833 50.5,149.5C 50.5,105.5 50.5,61.5 50.5,17.5C 79.1667,17.5 107.833,17.5 136.5,17.5 Z"/></g>
<g><path style="opacity:1" fill="#feebd5" d="M 136.5,17.5 C 160.5,17.5 184.5,17.5 208.5,17.5C 208.631,18.2389 208.464,18.9056 208,19.5C 203.272,18.2064 201.772,18.2064 203.5,19.5C 203.784,21.4147 203.451,23.0813 202.5,24.5C 202.5,23.1667 202.5,21.8333 202.5,20.5C 200.5,20.5 198.5,20.5 196.5,20.5C 196.5,21.8333 196.5,23.1667 196.5,24.5C 195.837,22.9581 195.17,21.2914 194.5,19.5C 193.893,19.6236 193.56,19.9569 193.5,20.5C 186.833,20.5 180.167,20.5 173.5,20.5C 179.653,19.6721 185.987,19.1721 192.5,19C 175.5,18.3333 158.5,18.3333 141.5,19C 151.675,19.1698 161.675,19.6698 171.5,20.5C 167.167,20.5 162.833,20.5 158.5,20.5C 158.5,21.8333 158.5,23.1667 158.5,24.5C 157.833,24.5 157.167,24.5 156.5,24.5C 150.355,25.4902 144.022,25.8235 137.5,25.5C 137.083,22.9208 137.75,20.7542 139.5,19C 138.263,18.7679 137.263,18.2679 136.5,17.5 Z"/></g>
<g><path style="opacity:1" fill="#f5921d" d="M 156.5,24.5 C 150.5,24.5 144.5,24.5 138.5,24.5C 138.5,23.1667 138.5,21.8333 138.5,20.5C 144.5,20.5 150.5,20.5 156.5,20.5C 156.5,21.8333 156.5,23.1667 156.5,24.5 Z"/></g>
<g><path style="opacity:1" fill="#f5931f" d="M 171.5,20.5 C 171.5,21.8333 171.5,23.1667 171.5,24.5C 167.167,24.5 162.833,24.5 158.5,24.5C 158.5,23.1667 158.5,21.8333 158.5,20.5C 162.833,20.5 167.167,20.5 171.5,20.5 Z"/></g>
<g><path style="opacity:1" fill="#f59320" d="M 173.5,20.5 C 180.167,20.5 186.833,20.5 193.5,20.5C 193.5,21.8333 193.5,23.1667 193.5,24.5C 186.833,24.5 180.167,24.5 173.5,24.5C 173.5,23.1667 173.5,21.8333 173.5,20.5 Z"/></g>
<g><path style="opacity:1" fill="#f59019" d="M 202.5,24.5 C 200.5,24.5 198.5,24.5 196.5,24.5C 196.5,23.1667 196.5,21.8333 196.5,20.5C 198.5,20.5 200.5,20.5 202.5,20.5C 202.5,21.8333 202.5,23.1667 202.5,24.5 Z"/></g>
<g><path style="opacity:1" fill="#bebfc2" d="M 265.5,81.5 C 262.907,82.7536 260.573,84.4202 258.5,86.5C 257.167,85.5 255.833,84.5 254.5,83.5C 264.997,69.8766 266.163,55.5433 258,40.5C 245.885,26.8791 231.385,23.7124 214.5,31C 212.136,32.8419 209.803,34.6753 207.5,36.5C 206.136,34.8089 204.803,33.1423 203.5,31.5C 199.03,30.5139 194.363,30.1805 189.5,30.5C 189.5,29.5 189.5,28.5 189.5,27.5C 194.179,27.3342 198.845,27.5008 203.5,28C 204.025,28.6924 204.692,29.1924 205.5,29.5C 220.824,18.4394 236.824,17.6061 253.5,27C 271.414,41.3968 275.08,58.8968 264.5,79.5C 264.863,80.1835 265.196,80.8501 265.5,81.5 Z"/></g>
<g><path style="opacity:1" fill="#fcfcfb" d="M 254.5,83.5 C 240.419,94.3954 225.752,95.2287 210.5,86C 198.312,74.7164 195.146,61.2164 201,45.5C 203.176,42.4706 205.343,39.4706 207.5,36.5C 209.803,34.6753 212.136,32.8419 214.5,31C 231.385,23.7124 245.885,26.8791 258,40.5C 266.163,55.5433 264.997,69.8766 254.5,83.5 Z"/></g>
<g><path style="opacity:1" fill="#a5a6a9" d="M 203.5,31.5 C 204.803,33.1423 206.136,34.8089 207.5,36.5C 205.343,39.4706 203.176,42.4706 201,45.5C 195.146,61.2164 198.312,74.7164 210.5,86C 225.752,95.2287 240.419,94.3954 254.5,83.5C 255.833,84.5 257.167,85.5 258.5,86.5C 258.5,86.8333 258.5,87.1667 258.5,87.5C 255.757,89.2393 253.757,91.5726 252.5,94.5C 251.85,94.1961 251.183,93.8627 250.5,93.5C 245.548,95.9215 240.548,97.9215 235.5,99.5C 232.833,99.5 230.167,99.5 227.5,99.5C 226.791,98.596 225.791,98.2627 224.5,98.5C 218.005,98.0833 212.339,95.7499 207.5,91.5C 206.167,90.5 204.833,89.5 203.5,88.5C 202.167,86.5 200.5,84.8333 198.5,83.5C 187.78,64.8811 189.447,47.5477 203.5,31.5 Z"/></g>
<g><path style="opacity:1" fill="#f69d3c" d="M 236.5,58.5 C 238.319,65.1887 235.652,68.0221 228.5,67C 224.335,62.6476 224.669,58.6476 229.5,55C 232.994,54.0796 235.327,55.2463 236.5,58.5 Z"/></g>
<g><path style="opacity:1" fill="#fbf5ed" d="M 236.5,58.5 C 236.995,63.8351 234.662,66.3351 229.5,66C 225.097,61.4468 225.93,58.2802 232,56.5C 233.833,56.5186 235.333,57.1852 236.5,58.5 Z"/></g>
<g><path style="opacity:1" fill="#fb9429" d="M 217.5,63.5 C 219.167,63.5 220.833,63.5 222.5,63.5C 222.439,66.0495 221.106,67.5495 218.5,68C 213.676,70.2203 208.676,71.7203 203.5,72.5C 203.33,71.1779 203.663,70.0113 204.5,69C 209.154,67.666 213.487,65.8327 217.5,63.5 Z"/></g>
<g><path style="opacity:1" fill="#848283" d="M 95.5,113.5 C 95.5,114.167 95.5,114.833 95.5,115.5C 95.5,123.167 95.5,130.833 95.5,138.5C 94.8333,104.833 94.1667,71.1667 93.5,37.5C 92.8423,38.3984 92.1757,39.3984 91.5,40.5C 91.5297,37.5351 92.363,34.5351 94,31.5C 96.3856,34.0443 97.3856,37.0443 97,40.5C 96.6667,39.8333 96.3333,39.1667 96,38.5C 95.5,63.4978 95.3334,88.4978 95.5,113.5 Z"/></g>
<g><path style="opacity:1" fill="#8ec14b" d="M 222.5,77.5 C 228.561,77.2096 234.561,77.5429 240.5,78.5C 243.555,87.6451 240.221,91.3117 230.5,89.5C 228.167,89.1667 225.833,88.8333 223.5,88.5C 222.574,84.9062 222.241,81.2396 222.5,77.5 Z"/></g>
<g><path style="opacity:1" fill="#5b4b42" d="M 265.5,81.5 C 273.432,87.9279 280.932,94.9279 288,102.5C 288.667,105.167 288.667,107.833 288,110.5C 287.623,111.942 286.79,112.942 285.5,113.5C 276.5,104.833 267.5,96.1667 258.5,87.5C 258.5,87.1667 258.5,86.8333 258.5,86.5C 260.573,84.4202 262.907,82.7536 265.5,81.5 Z"/></g>
<g><path style="opacity:1" fill="#c1b08e" d="M 265.5,84.5 C 265.897,83.475 266.563,83.3083 267.5,84C 273.667,90.1667 279.833,96.3333 286,102.5C 286.667,103.167 286.667,103.833 286,104.5C 279.298,97.6307 272.465,90.964 265.5,84.5 Z"/></g>
<g><path style="opacity:1" fill="#f6992c" d="M 198.5,83.5 C 192.762,90.7438 186.428,97.5772 179.5,104C 177.588,104.279 176.254,103.446 175.5,101.5C 182.597,95.9068 189.264,89.7402 195.5,83C 196.577,82.5304 197.577,82.6971 198.5,83.5 Z"/></g>
<g><path style="opacity:1" fill="#8ec546" d="M 203.5,88.5 C 204.833,89.5 206.167,90.5 207.5,91.5C 207.817,107.578 207.484,123.578 206.5,139.5C 203.167,139.5 199.833,139.5 196.5,139.5C 196.5,122.5 196.5,105.5 196.5,88.5C 198.833,88.5 201.167,88.5 203.5,88.5 Z"/></g>
<g><path style="opacity:1" fill="#362d28" d="M 258.5,87.5 C 267.5,96.1667 276.5,104.833 285.5,113.5C 281.939,117.704 277.605,118.537 272.5,116C 265.239,109.244 258.572,102.078 252.5,94.5C 253.757,91.5726 255.757,89.2393 258.5,87.5 Z"/></g>
<g><path style="opacity:1" fill="#fbfbfb" d="M 207.5,91.5 C 212.339,95.7499 218.005,98.0833 224.5,98.5C 224.5,112.167 224.5,125.833 224.5,139.5C 218.5,139.5 212.5,139.5 206.5,139.5C 207.484,123.578 207.817,107.578 207.5,91.5 Z"/></g>
<g><path style="opacity:1" fill="#8ac43f" d="M 227.5,99.5 C 230.167,99.5 232.833,99.5 235.5,99.5C 235.5,112.5 235.5,125.5 235.5,138.5C 232.167,138.5 228.833,138.5 225.5,138.5C 224.852,125.124 225.519,112.124 227.5,99.5 Z"/></g>
<g><path style="opacity:1" fill="#d0dcc1" d="M 235.5,99.5 C 236.495,112.323 236.829,125.323 236.5,138.5C 239.713,138.81 242.713,138.477 245.5,137.5C 249.808,138.679 250.141,140.013 246.5,141.5C 246.5,141.167 246.5,140.833 246.5,140.5C 243.038,139.518 239.371,139.185 235.5,139.5C 235.5,139.167 235.5,138.833 235.5,138.5C 235.5,125.5 235.5,112.5 235.5,99.5 Z"/></g>
<g><path style="opacity:1" fill="#f7a648" d="M 146.5,99.5 C 148.104,100.287 148.771,101.62 148.5,103.5C 145.833,106.167 143.167,106.167 140.5,103.5C 140.715,99.1655 142.715,97.8322 146.5,99.5 Z"/></g>
<g><path style="opacity:1" fill="#faefe2" d="M 146.5,99.5 C 146.884,101.665 146.217,103.332 144.5,104.5C 142.783,103.332 142.116,101.665 142.5,99.5C 143.833,99.5 145.167,99.5 146.5,99.5 Z"/></g>
<g><path style="opacity:1" fill="#f59526" d="M 165.5,103.5 C 166.806,104.467 167.473,105.801 167.5,107.5C 161.811,106.885 156.144,106.052 150.5,105C 149.944,104.617 149.611,104.117 149.5,103.5C 149.791,102.351 150.624,101.684 152,101.5C 156.489,102.308 160.989,102.975 165.5,103.5 Z"/></g>
<g><path style="opacity:1" fill="#f9f9f5" d="M 198.5,83.5 C 200.5,84.8333 202.167,86.5 203.5,88.5C 201.167,88.5 198.833,88.5 196.5,88.5C 196.5,105.5 196.5,122.5 196.5,139.5C 190.5,139.5 184.5,139.5 178.5,139.5C 178.5,131.833 178.5,124.167 178.5,116.5C 174.833,116.5 171.167,116.5 167.5,116.5C 167.799,124.253 167.466,131.92 166.5,139.5C 160.833,139.5 155.167,139.5 149.5,139.5C 149.5,129.833 149.5,120.167 149.5,110.5C 146.167,110.5 142.833,110.5 139.5,110.5C 139.806,120.25 139.473,129.916 138.5,139.5C 132.5,139.5 126.5,139.5 120.5,139.5C 121.455,133.591 121.789,127.591 121.5,121.5C 117.833,121.5 114.167,121.5 110.5,121.5C 110.789,127.591 110.455,133.591 109.5,139.5C 104.637,139.819 99.97,139.486 95.5,138.5C 95.5,130.833 95.5,123.167 95.5,115.5C 100.179,115.666 104.845,115.499 109.5,115C 110.056,114.617 110.389,114.117 110.5,113.5C 111.1,112.1 112.1,111.1 113.5,110.5C 120.149,111.728 120.149,113.228 113.5,115C 117.861,116.988 119.694,115.488 119,110.5C 117.89,108.963 116.39,108.297 114.5,108.5C 116.455,105.867 118.455,105.867 120.5,108.5C 120.5,109.5 120.5,110.5 120.5,111.5C 125.653,110.595 130.653,109.095 135.5,107C 137.544,106.502 138.878,105.335 139.5,103.5C 139.833,103.5 140.167,103.5 140.5,103.5C 143.167,106.167 145.833,106.167 148.5,103.5C 148.833,103.5 149.167,103.5 149.5,103.5C 149.611,104.117 149.944,104.617 150.5,105C 156.144,106.052 161.811,106.885 167.5,107.5C 167.473,105.801 166.806,104.467 165.5,103.5C 169.639,104.296 172.805,102.963 175,99.5C 175.464,100.094 175.631,100.761 175.5,101.5C 176.254,103.446 177.588,104.279 179.5,104C 186.428,97.5772 192.762,90.7438 198.5,83.5 Z"/></g>
<g><path style="opacity:1" fill="#f69d3b" d="M 174.5,105.5 C 174.56,104.957 174.893,104.624 175.5,104.5C 177.552,109.617 175.885,111.45 170.5,110C 169.446,108.612 169.28,107.112 170,105.5C 170.271,109.13 171.938,110.13 175,108.5C 175.74,107.251 175.573,106.251 174.5,105.5 Z"/></g>
<g><path style="opacity:1" fill="#f7a950" d="M 114.5,108.5 C 116.39,108.297 117.89,108.963 119,110.5C 119.694,115.488 117.861,116.988 113.5,115C 120.149,113.228 120.149,111.728 113.5,110.5C 113.833,109.833 114.167,109.167 114.5,108.5 Z"/></g>
<g><path style="opacity:1" fill="#f69a31" d="M 139.5,103.5 C 138.878,105.335 137.544,106.502 135.5,107C 130.653,109.095 125.653,110.595 120.5,111.5C 120.5,110.5 120.5,109.5 120.5,108.5C 125.356,106.38 130.356,104.547 135.5,103C 137.066,102.235 138.399,102.402 139.5,103.5 Z"/></g>
<g><path style="opacity:1" fill="#aecc86" d="M 224.5,98.5 C 225.791,98.2627 226.791,98.596 227.5,99.5C 225.519,112.124 224.852,125.124 225.5,138.5C 228.833,138.5 232.167,138.5 235.5,138.5C 235.5,138.833 235.5,139.167 235.5,139.5C 231.833,139.5 228.167,139.5 224.5,139.5C 224.5,125.833 224.5,112.167 224.5,98.5 Z"/></g>
<g><path style="opacity:1" fill="#8cc343" d="M 149.5,139.5 C 145.833,139.5 142.167,139.5 138.5,139.5C 139.473,129.916 139.806,120.25 139.5,110.5C 142.833,110.5 146.167,110.5 149.5,110.5C 149.5,120.167 149.5,129.833 149.5,139.5 Z"/></g>
<g><path style="opacity:1" fill="#f5982c" d="M 110.5,113.5 C 110.389,114.117 110.056,114.617 109.5,115C 104.845,115.499 100.179,115.666 95.5,115.5C 95.5,114.833 95.5,114.167 95.5,113.5C 100.769,111.114 105.769,111.114 110.5,113.5 Z"/></g>
<g><path style="opacity:1" fill="#8dc344" d="M 178.5,139.5 C 174.5,139.5 170.5,139.5 166.5,139.5C 167.466,131.92 167.799,124.253 167.5,116.5C 171.167,116.5 174.833,116.5 178.5,116.5C 178.5,124.167 178.5,131.833 178.5,139.5 Z"/></g>
<g><path style="opacity:1" fill="#8dc246" d="M 120.5,139.5 C 116.833,139.5 113.167,139.5 109.5,139.5C 110.455,133.591 110.789,127.591 110.5,121.5C 114.167,121.5 117.833,121.5 121.5,121.5C 121.789,127.591 121.455,133.591 120.5,139.5 Z"/></g>
<g><path style="opacity:1" fill="#4d4c4c" d="M 246.5,141.5 C 250.141,140.013 249.808,138.679 245.5,137.5C 244.255,137.031 244.421,136.697 246,136.5C 248.62,137.481 251.12,138.647 253.5,140C 250.716,140.892 248.05,142.058 245.5,143.5C 244.33,142.306 244.663,141.639 246.5,141.5 Z"/></g>
<g><path style="opacity:1" fill="#383437" d="M 93.5,37.5 C 94.1667,71.1667 94.8333,104.833 95.5,138.5C 99.97,139.486 104.637,139.819 109.5,139.5C 113.167,139.5 116.833,139.5 120.5,139.5C 126.5,139.5 132.5,139.5 138.5,139.5C 142.167,139.5 145.833,139.5 149.5,139.5C 155.167,139.5 160.833,139.5 166.5,139.5C 170.5,139.5 174.5,139.5 178.5,139.5C 184.5,139.5 190.5,139.5 196.5,139.5C 199.833,139.5 203.167,139.5 206.5,139.5C 212.5,139.5 218.5,139.5 224.5,139.5C 228.167,139.5 231.833,139.5 235.5,139.5C 239.371,139.185 243.038,139.518 246.5,140.5C 195.5,140.5 144.5,140.5 93.5,140.5C 93.5,106.167 93.5,71.8333 93.5,37.5 Z"/></g>
<g><path style="opacity:1" fill="#dededf" d="M 301.5,167.5 C 214.5,167.5 127.5,167.5 40.5,167.5C 40.6219,171.838 40.9553,172.172 41.5,168.5C 84.5,168.5 127.5,168.5 170.5,168.5C 170.5,173.833 170.5,179.167 170.5,184.5C 127.33,184.168 84.3301,184.501 41.5,185.5C 39.5437,179.588 38.8771,173.255 39.5,166.5C 127.002,166.167 214.335,166.501 301.5,167.5 Z"/></g>
<g><path style="opacity:1" fill="#f2f1f2" d="M 301.5,167.5 C 301.5,173.5 301.5,179.5 301.5,185.5C 214.833,185.5 128.167,185.5 41.5,185.5C 84.3301,184.501 127.33,184.168 170.5,184.5C 170.5,179.167 170.5,173.833 170.5,168.5C 127.5,168.5 84.5,168.5 41.5,168.5C 40.9553,172.172 40.6219,171.838 40.5,167.5C 127.5,167.5 214.5,167.5 301.5,167.5 Z"/></g>
<g><path style="opacity:1" fill="#d3d3d5" d="M 273.5,170.5 C 281.635,169.754 289.968,169.421 298.5,169.5C 299.424,173.765 299.757,178.265 299.5,183C 291.803,183.021 283.803,183.187 275.5,183.5C 274.833,183.167 274.167,182.833 273.5,182.5C 273.561,178.439 273.561,174.439 273.5,170.5 Z"/></g>
<g><path style="opacity:1" fill="#7a797a" d="M -0.5,185.5 C 12.5,185.5 25.5,185.5 38.5,185.5C 126.5,186.833 214.5,186.833 302.5,185.5C 315.5,185.5 328.5,185.5 341.5,185.5C 341.5,190.5 341.5,195.5 341.5,200.5C 227.5,200.5 113.5,200.5 -0.5,200.5C -0.5,195.5 -0.5,190.5 -0.5,185.5 Z"/></g>
<g><path style="opacity:1" fill="#231f21" d="M 235.5,192.5 C 235.5,193.5 235.5,194.5 235.5,195.5C 192.167,195.5 148.833,195.5 105.5,195.5C 105.5,194.5 105.5,193.5 105.5,192.5C 148.833,192.5 192.167,192.5 235.5,192.5 Z"/></g>
<g><path style="opacity:1" fill="#f4f3f4" d="M 1.5,187.5 C 114.5,187.5 227.5,187.5 340.5,187.5C 340.5,191.167 340.5,194.833 340.5,198.5C 227.5,198.5 114.5,198.5 1.5,198.5C 79.5048,197.91 157.505,196.91 235.5,195.5C 235.5,194.5 235.5,193.5 235.5,192.5C 192.335,191.667 149.002,191.167 105.5,191C 127.174,190.833 148.841,190.333 170.5,189.5C 114.001,188.833 57.6681,188.167 1.5,187.5 Z"/></g>
<g><path style="opacity:1" fill="#e1e1e1" d="M 1.5,187.5 C 57.6681,188.167 114.001,188.833 170.5,189.5C 148.841,190.333 127.174,190.833 105.5,191C 149.002,191.167 192.335,191.667 235.5,192.5C 192.167,192.5 148.833,192.5 105.5,192.5C 105.5,193.5 105.5,194.5 105.5,195.5C 148.833,195.5 192.167,195.5 235.5,195.5C 157.505,196.91 79.5048,197.91 1.5,198.5C 0.166667,194.833 0.166667,191.167 1.5,187.5 Z"/></g>
</svg>
