<?xml version="1.0" encoding="UTF-8"?>
<!DOCTYPE svg PUBLIC "-//W3C//DTD SVG 1.1//EN" "http://www.w3.org/Graphics/SVG/1.1/DTD/svg11.dtd">
<svg xmlns="http://www.w3.org/2000/svg" version="1.1" width="342px" height="201px" style="shape-rendering:geometricPrecision; text-rendering:geometricPrecision; image-rendering:optimizeQuality; fill-rule:evenodd; clip-rule:evenodd" xmlns:xlink="http://www.w3.org/1999/xlink">
<g><path style="opacity:0.004" fill="#fefffe" d="M 38.5,-0.5 C 38.8333,-0.5 39.1667,-0.5 39.5,-0.5C 39.3147,0.170143 38.9813,0.170143 38.5,-0.5 Z"/></g>
<g><path style="opacity:0.004" fill="#fefffe" d="M 300.5,-0.5 C 300.833,-0.5 301.167,-0.5 301.5,-0.5C 301.315,0.170143 300.981,0.170143 300.5,-0.5 Z"/></g>
<g><path style="opacity:0.008" fill="#00807f" d="M 300.5,2.5 C 301.833,3.16667 301.833,3.16667 300.5,2.5 Z"/></g>
<g><path style="opacity:1" fill="#434343" d="M 44.5,-0.5 C 45.1667,-0.5 45.8333,-0.5 46.5,-0.5C 87.4946,0.833256 128.828,1.49992 170.5,1.5C 211.833,1.33333 253.167,1.16667 294.5,1C 211.999,0.83299 129.666,0.33299 47.5,-0.5C 130.833,-0.5 214.167,-0.5 297.5,-0.5C 297.393,1.37857 297.893,1.7119 299,0.5C 299.717,1.0442 300.217,1.71087 300.5,2.5C 299.167,2.83333 299.167,3.16667 300.5,3.5C 300.783,4.28913 301.283,4.9558 302,5.5C 302.5,65.4991 302.667,125.499 302.5,185.5C 214.5,186.833 126.5,186.833 38.5,185.5C 38.3333,125.166 38.5,64.8324 39,4.5C 40.8211,2.99149 42.6544,1.32483 44.5,-0.5 Z"/></g>
<g><path style="opacity:1" fill="#252424" d="M 46.5,-0.5 C 46.8333,-0.5 47.1667,-0.5 47.5,-0.5C 129.666,0.33299 211.999,0.83299 294.5,1C 253.167,1.16667 211.833,1.33333 170.5,1.5C 128.828,1.49992 87.4946,0.833256 46.5,-0.5 Z"/></g>
<g><path style="opacity:1" fill="#d7effb" d="M 296.5,6.5 C 296.5,13.1667 296.5,19.8333 296.5,26.5C 286.833,26.5 277.167,26.5 267.5,26.5C 267.5,25.1667 267.5,23.8333 267.5,22.5C 265.833,22.5 264.167,22.5 262.5,22.5C 262.5,23.8333 262.5,25.1667 262.5,26.5C 240.167,26.5 217.833,26.5 195.5,26.5C 195.5,25.1667 195.5,23.8333 195.5,22.5C 193.833,22.5 192.167,22.5 190.5,22.5C 190.5,23.8333 190.5,25.1667 190.5,26.5C 178.5,26.5 166.5,26.5 154.5,26.5C 154.5,27.8333 154.5,29.1667 154.5,30.5C 156.318,66.9472 157.151,103.614 157,140.5C 168.085,141.487 179.252,141.821 190.5,141.5C 190.5,147.833 190.5,154.167 190.5,160.5C 180.167,160.5 169.833,160.5 159.5,160.5C 158.103,149.913 155.603,139.58 152,129.5C 143.13,122.149 133.296,116.482 122.5,112.5C 120.097,109.791 117.097,107.791 113.5,106.5C 113.918,103.561 115.418,101.228 118,99.5C 120.808,95.2223 122.474,90.5556 123,85.5C 125.043,83.792 126.71,81.792 128,79.5C 128.074,72.0039 127.574,64.6706 126.5,57.5C 125.157,53.6492 122.823,50.4825 119.5,48C 114.088,46.4593 109.088,44.126 104.5,41C 92.2726,39.7362 82.4392,43.9029 75,53.5C 73.6905,57.0704 72.8572,60.737 72.5,64.5C 71.0301,69.621 70.5301,74.9543 71,80.5C 75.1984,85.7405 77.8651,91.7405 79,98.5C 80.8119,100.3 82.6452,101.967 84.5,103.5C 84.719,104.675 84.3857,105.675 83.5,106.5C 80.432,107.691 77.7654,109.358 75.5,111.5C 67.5678,115.134 59.9011,119.3 52.5,124C 49.6007,126.729 46.934,129.562 44.5,132.5C 44.5,90.5 44.5,48.5 44.5,6.5C 128.5,6.5 212.5,6.5 296.5,6.5 Z"/></g>
<g><path style="opacity:1" fill="#636668" d="M 296.5,6.5 C 297.833,57.8333 297.833,109.167 296.5,160.5C 296.5,154.167 296.5,147.833 296.5,141.5C 296.5,140.833 296.5,140.167 296.5,139.5C 296.5,103.5 296.5,67.5 296.5,31.5C 296.5,31.1667 296.5,30.8333 296.5,30.5C 296.5,29.5 296.5,28.5 296.5,27.5C 286.652,27.8271 276.986,27.4938 267.5,26.5C 277.167,26.5 286.833,26.5 296.5,26.5C 296.5,19.8333 296.5,13.1667 296.5,6.5 Z"/></g>
<g><path style="opacity:1" fill="#482f22" d="M 267.5,26.5 C 276.986,27.4938 286.652,27.8271 296.5,27.5C 296.5,28.5 296.5,29.5 296.5,30.5C 249.167,30.5 201.833,30.5 154.5,30.5C 154.5,29.1667 154.5,27.8333 154.5,26.5C 166.5,26.5 178.5,26.5 190.5,26.5C 190.5,25.1667 190.5,23.8333 190.5,22.5C 192.167,22.5 193.833,22.5 195.5,22.5C 195.5,23.8333 195.5,25.1667 195.5,26.5C 217.833,26.5 240.167,26.5 262.5,26.5C 262.5,25.1667 262.5,23.8333 262.5,22.5C 264.167,22.5 265.833,22.5 267.5,22.5C 267.5,23.8333 267.5,25.1667 267.5,26.5 Z"/></g>
<g><path style="opacity:1" fill="#fdfafa" d="M 296.5,31.5 C 296.5,67.5 296.5,103.5 296.5,139.5C 250.5,139.5 204.5,139.5 158.5,139.5C 158.5,103.5 158.5,67.5 158.5,31.5C 204.5,31.5 250.5,31.5 296.5,31.5 Z"/></g>
<g><path style="opacity:1" fill="#796b61" d="M 154.5,30.5 C 201.833,30.5 249.167,30.5 296.5,30.5C 296.5,30.8333 296.5,31.1667 296.5,31.5C 250.5,31.5 204.5,31.5 158.5,31.5C 158.5,67.5 158.5,103.5 158.5,139.5C 168.987,140.494 179.654,140.828 190.5,140.5C 190.5,140.833 190.5,141.167 190.5,141.5C 179.252,141.821 168.085,141.487 157,140.5C 157.151,103.614 156.318,66.9472 154.5,30.5 Z"/></g>
<g><path style="opacity:1" fill="#f3868b" d="M 206.5,40.5 C 200.812,39.3944 195.145,39.2277 189.5,40C 195.344,37.9091 201.011,38.0757 206.5,40.5 Z"/></g>
<g><path style="opacity:1" fill="#f15258" d="M 256.5,41.5 C 256.672,42.4916 256.338,43.1583 255.5,43.5C 255.631,42.7611 255.464,42.0944 255,41.5C 254.781,42.938 254.281,44.2713 253.5,45.5C 252.353,43.2351 252.186,40.9018 253,38.5C 254,41.1667 255,41.1667 256,38.5C 256.483,39.448 256.649,40.448 256.5,41.5 Z"/></g>
<g><path style="opacity:1" fill="#f69194" d="M 255.5,43.5 C 256.338,43.1583 256.672,42.4916 256.5,41.5C 257.404,42.209 257.737,43.209 257.5,44.5C 260.187,44.6641 262.854,44.4974 265.5,44C 266.155,42.5134 267.155,41.3467 268.5,40.5C 269.833,41.5 271.167,42.5 272.5,43.5C 275.457,42.7784 278.457,42.9451 281.5,44C 279.231,44.7581 277.064,44.5914 275,43.5C 274.311,44.3567 273.478,45.0233 272.5,45.5C 271.167,44.5 269.833,43.5 268.5,42.5C 267.713,43.2421 267.047,44.0754 266.5,45C 263.854,45.4974 261.187,45.6641 258.5,45.5C 258.719,46.675 258.386,47.675 257.5,48.5C 256.438,46.9783 255.771,45.3117 255.5,43.5 Z"/></g>
<g><path style="opacity:1" fill="#6d421a" d="M 126.5,57.5 C 126.782,64.6381 125.948,71.6381 124,78.5C 124.306,70.1146 121.139,63.4479 114.5,58.5C 111.201,62.6908 109.535,62.0241 109.5,56.5C 103.924,58.2308 98.4237,60.2308 93,62.5C 90.6962,62.6824 90.1962,62.0157 91.5,60.5C 89.4503,59.3373 87.4503,59.5039 85.5,61C 79.2067,66.0919 75.3734,72.5919 74,80.5C 73.1697,75.1924 72.6697,69.8591 72.5,64.5C 72.8572,60.737 73.6905,57.0704 75,53.5C 82.4392,43.9029 92.2726,39.7362 104.5,41C 109.088,44.126 114.088,46.4593 119.5,48C 122.823,50.4825 125.157,53.6492 126.5,57.5 Z"/></g>
<g><path style="opacity:1" fill="#f89e9d" d="M 206.5,40.5 C 209.792,40.1196 212.125,41.4529 213.5,44.5C 211.235,45.6474 208.902,45.8141 206.5,45C 210.15,43.7381 210.15,42.2381 206.5,40.5 Z"/></g>
<g><path style="opacity:1" fill="#f7a2a3" d="M 240.5,39.5 C 241.208,41.3779 242.374,43.0445 244,44.5C 244.492,43.451 244.326,42.451 243.5,41.5C 244.325,40.6143 245.325,40.281 246.5,40.5C 246.193,42.4458 246.193,44.1125 246.5,45.5C 247.934,44.0642 249.1,42.3975 250,40.5C 250.652,43.8689 249.319,45.8689 246,46.5C 242.118,45.7839 240.285,43.4505 240.5,39.5 Z"/></g>
<g><path style="opacity:1" fill="#f68789" d="M 215.5,54.5 C 214.883,54.3893 214.383,54.056 214,53.5C 212.167,47.3333 214.333,45.1667 220.5,47C 223.207,48.8637 224.041,51.3637 223,54.5C 222.346,55.6956 221.846,55.6956 221.5,54.5C 223.185,50.9924 222.018,48.9924 218,48.5C 214.465,49.3838 213.632,51.3838 215.5,54.5 Z"/></g>
<g><path style="opacity:1" fill="#fac1c1" d="M 249.5,50.5 C 249.39,52.3541 249.057,54.3541 248.5,56.5C 246.931,55.286 246.098,53.6193 246,51.5C 245.688,54.3092 244.188,55.9759 241.5,56.5C 238.86,54.1206 238.86,51.6206 241.5,49C 243.833,48.3333 246.167,48.3333 248.5,49C 249.056,49.3826 249.389,49.8826 249.5,50.5 Z"/></g>
<g><path style="opacity:1" fill="#f36e71" d="M 263.5,48.5 C 265.927,49.2789 265.927,50.4455 263.5,52C 267.816,52.2612 268.983,54.0945 267,57.5C 266.888,54.5529 265.388,53.2196 262.5,53.5C 262.33,54.8221 262.663,55.9887 263.5,57C 261.191,56.2093 258.858,56.3759 256.5,57.5C 252.806,56.1223 251.973,53.789 254,50.5C 254.251,52.433 254.751,54.2663 255.5,56C 255.833,56.1667 256.167,56.3333 256.5,56.5C 257.251,55.624 257.751,54.624 258,53.5C 258.689,54.3567 259.522,55.0233 260.5,55.5C 261.132,52.9386 262.132,50.6052 263.5,48.5 Z"/></g>
<g><path style="opacity:1" fill="#f37d80" d="M 270.5,53.5 C 273.458,53.7252 276.458,54.0585 279.5,54.5C 276.683,54.7859 273.683,55.4526 270.5,56.5C 270.5,55.5 270.5,54.5 270.5,53.5 Z"/></g>
<g><path style="opacity:1" fill="#f69597" d="M 180.5,49.5 C 181.978,49.238 183.311,49.5713 184.5,50.5C 183.726,51.7112 182.893,51.7112 182,50.5C 179.551,51.9063 178.551,53.9063 179,56.5C 180.779,57.4791 182.445,57.1458 184,55.5C 184.973,53.6079 185.64,51.6079 186,49.5C 186.874,52.961 186.04,55.961 183.5,58.5C 184.718,59.8027 184.385,60.8027 182.5,61.5C 183.348,63.4086 183.682,65.4086 183.5,67.5C 185.638,67.297 187.305,66.297 188.5,64.5C 195.607,68.426 202.774,68.426 210,64.5C 210.617,65.4491 210.451,66.2825 209.5,67C 203.014,69.9102 196.514,70.0769 190,67.5C 189.517,68.448 189.351,69.448 189.5,70.5C 187.323,70.4139 185.323,69.7472 183.5,68.5C 182.186,69.3128 181.019,70.3128 180,71.5C 179.833,71.1667 179.667,70.8333 179.5,70.5C 180.937,68.9788 181.604,67.1454 181.5,65C 181.367,61.4732 180.033,58.1398 177.5,55C 177.863,52.8077 178.863,50.9744 180.5,49.5 Z"/></g>
<g><path style="opacity:1" fill="#f68b8c" d="M 249.5,50.5 C 252.849,55.437 251.515,58.437 245.5,59.5C 243.583,59.2462 242.249,58.2462 241.5,56.5C 244.188,55.9759 245.688,54.3092 246,51.5C 246.098,53.6193 246.931,55.286 248.5,56.5C 249.057,54.3541 249.39,52.3541 249.5,50.5 Z"/></g>
<g><path style="opacity:1" fill="#f48d8f" d="M 215.5,54.5 C 218.683,55.1241 221.35,56.6241 223.5,59C 222.552,59.4828 221.552,59.6495 220.5,59.5C 219.715,63.5963 220.882,66.9296 224,69.5C 224.667,70.1667 224.667,70.8333 224,71.5C 220.787,66.4113 217.454,66.4113 214,71.5C 215.401,68.7248 216.901,65.8915 218.5,63C 218.167,61.8333 217.833,60.6667 217.5,59.5C 216.549,60.3256 215.549,60.4922 214.5,60C 215.833,59 217.167,58 218.5,57C 217.058,56.6232 216.058,55.7899 215.5,54.5 Z"/></g>
<g><path style="opacity:1" fill="#f6dccc" d="M 126.5,57.5 C 127.574,64.6706 128.074,72.0039 128,79.5C 126.71,81.792 125.043,83.792 123,85.5C 122.474,90.5556 120.808,95.2223 118,99.5C 115.418,101.228 113.918,103.561 113.5,106.5C 109.121,110.883 104.454,114.883 99.5,118.5C 92.7544,115.088 87.7544,110.088 84.5,103.5C 82.6452,101.967 80.8119,100.3 79,98.5C 77.8651,91.7405 75.1984,85.7405 71,80.5C 70.5301,74.9543 71.0301,69.621 72.5,64.5C 72.6697,69.8591 73.1697,75.1924 74,80.5C 75.3734,72.5919 79.2067,66.0919 85.5,61C 87.4503,59.5039 89.4503,59.3373 91.5,60.5C 90.1962,62.0157 90.6962,62.6824 93,62.5C 98.4237,60.2308 103.924,58.2308 109.5,56.5C 109.535,62.0241 111.201,62.6908 114.5,58.5C 121.139,63.4479 124.306,70.1146 124,78.5C 125.948,71.6381 126.782,64.6381 126.5,57.5 Z"/></g>
<g><path style="opacity:1" fill="#f58c8e" d="M 278.5,66.5 C 277.25,66.4226 276.417,65.756 276,64.5C 271.673,66.7474 267.006,68.0807 262,68.5C 259.923,65.5964 258.589,65.9297 258,69.5C 257.147,67.8753 256.147,67.5419 255,68.5C 254.536,67.9056 254.369,67.2389 254.5,66.5C 254.896,62.0438 255.896,61.7105 257.5,65.5C 259.398,64.2655 261.065,64.5989 262.5,66.5C 264.741,66.1188 267.074,65.9521 269.5,66C 270.618,64.9264 271.618,63.7598 272.5,62.5C 275.161,63.3323 277.828,64.1656 280.5,65C 279.956,65.7172 279.289,66.2172 278.5,66.5 Z"/></g>
<g><path style="opacity:1" fill="#f9d4d4" d="M 278.5,66.5 C 280.042,67.1635 281.709,67.8302 283.5,68.5C 272.788,69.6142 262.121,70.9475 251.5,72.5C 250.737,71.7321 249.737,71.2321 248.5,71C 248.728,70.6012 249.062,70.4346 249.5,70.5C 250.675,70.719 251.675,70.3857 252.5,69.5C 252.942,68.2613 253.609,67.2613 254.5,66.5C 254.369,67.2389 254.536,67.9056 255,68.5C 256.147,67.5419 257.147,67.8753 258,69.5C 258.589,65.9297 259.923,65.5964 262,68.5C 267.006,68.0807 271.673,66.7474 276,64.5C 276.417,65.756 277.25,66.4226 278.5,66.5 Z"/></g>
<g><path style="opacity:1" fill="#f7a4a5" d="M 249.5,70.5 C 249.062,70.4346 248.728,70.6012 248.5,71C 249.737,71.2321 250.737,71.7321 251.5,72.5C 247.475,72.8161 243.475,72.9828 239.5,73C 240.624,72.7508 241.624,72.2508 242.5,71.5C 238.505,64.3207 240.338,61.3207 248,62.5C 248.174,65.2939 247.34,67.7939 245.5,70C 247.807,70.2713 248.974,69.1047 249,66.5C 249.49,67.7932 249.657,69.1266 249.5,70.5 Z"/></g>
<g><path style="opacity:1" fill="#f78a8b" d="M 282.5,86.5 C 278.943,81.7832 274.277,80.4499 268.5,82.5C 268.167,82.5 267.833,82.5 267.5,82.5C 272.495,78.3852 277.328,78.7185 282,83.5C 282.483,84.448 282.649,85.448 282.5,86.5 Z"/></g>
<g><path style="opacity:1" fill="#fbefee" d="M 282.5,86.5 C 282.871,90.0034 281.871,93.0034 279.5,95.5C 277.956,95.7031 276.622,96.3698 275.5,97.5C 274.197,94.3553 274.197,91.3553 275.5,88.5C 276.002,90.0847 277.002,90.5847 278.5,90C 273.971,81.1837 271.138,81.6837 270,91.5C 270.29,89.9559 270.956,88.6226 272,87.5C 272.498,90.4816 272.665,93.4816 272.5,96.5C 272.611,97.1174 272.944,97.6174 273.5,98C 271.527,98.4955 269.527,98.6621 267.5,98.5C 264.736,93.0261 265.069,87.6928 268.5,82.5C 274.277,80.4499 278.943,81.7832 282.5,86.5 Z"/></g>
<g><path style="opacity:1" fill="#f36c6c" d="M 197.5,83.5 C 195.088,83.244 193.421,84.244 192.5,86.5C 193.685,86.1236 195.018,86.1236 196.5,86.5C 194.189,89.147 191.856,91.8136 189.5,94.5C 189.667,94.8333 189.833,95.1667 190,95.5C 191.333,94.1667 192.667,92.8333 194,91.5C 194.595,92.8989 194.428,94.2322 193.5,95.5C 193.97,96.463 194.637,96.463 195.5,95.5C 195.328,96.4916 195.662,97.1583 196.5,97.5C 196.068,98.7095 195.401,99.7095 194.5,100.5C 194.5,100.167 194.5,99.8333 194.5,99.5C 194.631,98.7611 194.464,98.0944 194,97.5C 193.292,98.3805 192.458,99.0472 191.5,99.5C 191.44,98.9569 191.107,98.6236 190.5,98.5C 186.67,104.144 185.337,103.811 186.5,97.5C 186.414,96.5041 186.748,95.6708 187.5,95C 186.833,94.6667 186.167,94.3333 185.5,94C 186.5,93 187.5,92 188.5,91C 188.167,90.8333 187.833,90.6667 187.5,90.5C 184.979,93.4139 181.979,95.2473 178.5,96C 183.341,92.675 187.008,88.8417 189.5,84.5C 187.167,83.1667 184.833,83.1667 182.5,84.5C 181.674,85.451 181.508,86.451 182,87.5C 186.444,84.9918 186.611,85.4918 182.5,89C 182.833,89.3333 183.167,89.6667 183.5,90C 181.473,91.8793 179.14,93.046 176.5,93.5C 176.336,96.1873 176.503,98.854 177,101.5C 179.064,98.7264 181.564,96.8931 184.5,96C 182.5,98 180.5,100 178.5,102C 179.448,102.483 180.448,102.649 181.5,102.5C 181.5,102.833 181.5,103.167 181.5,103.5C 179.533,103.739 177.699,103.406 176,102.5C 174.314,96.8896 174.147,91.2229 175.5,85.5C 176.167,86.8333 176.833,88.1667 177.5,89.5C 180.044,88.2652 180.044,87.0985 177.5,86C 178.167,85.3333 178.833,84.6667 179.5,84C 177.833,83.6667 176.167,83.3333 174.5,83C 182.345,82.1777 190.011,82.3443 197.5,83.5 Z"/></g>
<g><path style="opacity:1" fill="#f1474a" d="M 275.5,88.5 C 275.217,87.7109 274.717,87.0442 274,86.5C 273.821,90.0252 273.321,93.3586 272.5,96.5C 272.665,93.4816 272.498,90.4816 272,87.5C 270.956,88.6226 270.29,89.9559 270,91.5C 271.138,81.6837 273.971,81.1837 278.5,90C 277.002,90.5847 276.002,90.0847 275.5,88.5 Z"/></g>
<g><path style="opacity:1" fill="#f9d2d2" d="M 196.5,86.5 C 197.158,87.7933 197.492,89.2933 197.5,91C 197.431,92.9855 196.765,94.4855 195.5,95.5C 194.637,96.463 193.97,96.463 193.5,95.5C 194.428,94.2322 194.595,92.8989 194,91.5C 192.667,92.8333 191.333,94.1667 190,95.5C 189.833,95.1667 189.667,94.8333 189.5,94.5C 191.856,91.8136 194.189,89.147 196.5,86.5 Z"/></g>
<g><path style="opacity:1" fill="#fcacaa" d="M 264.5,87.5 C 264.5,89.8333 264.5,92.1667 264.5,94.5C 263.07,94.4208 261.736,94.7542 260.5,95.5C 259.646,94.4783 258.646,93.6449 257.5,93C 258.646,92.3551 259.646,91.5217 260.5,90.5C 261.167,90.8333 261.833,91.1667 262.5,91.5C 263.172,90.0508 263.839,88.7175 264.5,87.5 Z"/></g>
<g><path style="opacity:1" fill="#f03c3d" d="M 267.5,82.5 C 267.833,82.5 268.167,82.5 268.5,82.5C 265.069,87.6928 264.736,93.0261 267.5,98.5C 267.5,98.8333 267.5,99.1667 267.5,99.5C 265.273,98.5994 264.273,96.9328 264.5,94.5C 264.5,92.1667 264.5,89.8333 264.5,87.5C 264.75,85.326 265.75,83.6594 267.5,82.5 Z"/></g>
<g><path style="opacity:1" fill="#f47677" d="M 249.5,85.5 C 250.942,87.8169 250.608,89.9836 248.5,92C 252.491,93.6206 254.324,96.4539 254,100.5C 248.221,101.807 242.388,101.807 236.5,100.5C 238.259,97.7341 240.593,95.7341 243.5,94.5C 243.611,93.8826 243.944,93.3826 244.5,93C 239.46,90.8041 238.293,87.3041 241,82.5C 242.726,81.4238 244.559,81.2571 246.5,82C 248.426,82.4224 249.426,83.5891 249.5,85.5 Z"/></g>
<g><path style="opacity:1" fill="#fbf1f1" d="M 249.5,85.5 C 249.391,91.4524 246.891,92.7857 242,89.5C 241.505,87.5273 241.338,85.5273 241.5,83.5C 244.513,83.1072 247.18,83.7739 249.5,85.5 Z"/></g>
<g><path style="opacity:1" fill="#f4635f" d="M 282.5,86.5 C 284.343,90.4331 283.343,93.4331 279.5,95.5C 281.871,93.0034 282.871,90.0034 282.5,86.5 Z"/></g>
<g><path style="opacity:1" fill="#f38487" d="M 226.5,90.5 C 229.988,90.9216 233.321,91.755 236.5,93C 235.833,93.3333 235.167,93.6667 234.5,94C 225.167,94.6667 215.833,94.6667 206.5,94C 213.411,93.2101 220.078,92.0434 226.5,90.5 Z"/></g>
<g><path style="opacity:1" fill="#fbecec" d="M 243.5,94.5 C 245.927,93.0262 248.26,93.1929 250.5,95C 252.211,96.1332 252.711,97.6332 252,99.5C 247.882,100.798 243.715,100.798 239.5,99.5C 240.857,97.8144 242.19,96.1477 243.5,94.5 Z"/></g>
<g><path style="opacity:1" fill="#f8cccc" d="M 186.5,97.5 C 184.605,98.973 182.939,100.64 181.5,102.5C 180.448,102.649 179.448,102.483 178.5,102C 180.5,100 182.5,98 184.5,96C 181.564,96.8931 179.064,98.7264 177,101.5C 176.503,98.854 176.336,96.1873 176.5,93.5C 179.14,93.046 181.473,91.8793 183.5,90C 183.167,89.6667 182.833,89.3333 182.5,89C 186.611,85.4918 186.444,84.9918 182,87.5C 181.508,86.451 181.674,85.451 182.5,84.5C 184.833,83.1667 187.167,83.1667 189.5,84.5C 187.008,88.8417 183.341,92.675 178.5,96C 181.979,95.2473 184.979,93.4139 187.5,90.5C 187.833,90.6667 188.167,90.8333 188.5,91C 187.5,92 186.5,93 185.5,94C 186.167,94.3333 186.833,94.6667 187.5,95C 186.748,95.6708 186.414,96.5041 186.5,97.5 Z"/></g>
<g><path style="opacity:1" fill="#f6afb2" d="M 275.5,88.5 C 274.197,91.3553 274.197,94.3553 275.5,97.5C 276.622,96.3698 277.956,95.7031 279.5,95.5C 276.245,99.4743 272.245,100.808 267.5,99.5C 267.5,99.1667 267.5,98.8333 267.5,98.5C 269.527,98.6621 271.527,98.4955 273.5,98C 272.944,97.6174 272.611,97.1174 272.5,96.5C 273.321,93.3586 273.821,90.0252 274,86.5C 274.717,87.0442 275.217,87.7109 275.5,88.5 Z"/></g>
<g><path style="opacity:1" fill="#ef4648" d="M 197.5,83.5 C 198.811,89.7043 198.811,96.0377 197.5,102.5C 196.441,103.696 195.107,104.363 193.5,104.5C 189.547,103.638 185.547,103.305 181.5,103.5C 181.5,103.167 181.5,102.833 181.5,102.5C 182.939,100.64 184.605,98.973 186.5,97.5C 185.337,103.811 186.67,104.144 190.5,98.5C 191.107,98.6236 191.44,98.9569 191.5,99.5C 191.047,100.458 190.381,101.292 189.5,102C 190,102.167 190.5,102.333 191,102.5C 192.174,101.456 193.341,100.456 194.5,99.5C 194.5,99.8333 194.5,100.167 194.5,100.5C 193.34,102.203 194.007,102.869 196.5,102.5C 197.482,100.021 197.482,98.3546 196.5,97.5C 195.662,97.1583 195.328,96.4916 195.5,95.5C 196.765,94.4855 197.431,92.9855 197.5,91C 197.492,89.2933 197.158,87.7933 196.5,86.5C 195.018,86.1236 193.685,86.1236 192.5,86.5C 193.421,84.244 195.088,83.244 197.5,83.5 Z"/></g>
<g><path style="opacity:1" fill="#f6ddde" d="M 194.5,99.5 C 193.341,100.456 192.174,101.456 191,102.5C 190.5,102.333 190,102.167 189.5,102C 190.381,101.292 191.047,100.458 191.5,99.5C 192.458,99.0472 193.292,98.3805 194,97.5C 194.464,98.0944 194.631,98.7611 194.5,99.5 Z"/></g>
<g><path style="opacity:1" fill="#f8cbcc" d="M 194.5,100.5 C 195.401,99.7095 196.068,98.7095 196.5,97.5C 197.482,98.3546 197.482,100.021 196.5,102.5C 194.007,102.869 193.34,102.203 194.5,100.5 Z"/></g>
<g><path style="opacity:1" fill="#fbfbfa" d="M 84.5,103.5 C 87.7544,110.088 92.7544,115.088 99.5,118.5C 104.454,114.883 109.121,110.883 113.5,106.5C 117.097,107.791 120.097,109.791 122.5,112.5C 118.019,118.097 113.519,123.764 109,129.5C 107.264,127.937 105.764,126.27 104.5,124.5C 102.814,122.984 100.981,121.65 99,120.5C 97.0198,121.315 95.5198,122.648 94.5,124.5C 92.5372,125.96 90.7038,127.627 89,129.5C 84.7226,123.253 80.2226,117.253 75.5,111.5C 77.7654,109.358 80.432,107.691 83.5,106.5C 84.3857,105.675 84.719,104.675 84.5,103.5 Z"/></g>
<g><path style="opacity:1" fill="#c9bda5" d="M 75.5,111.5 C 80.2226,117.253 84.7226,123.253 89,129.5C 90.7038,127.627 92.5372,125.96 94.5,124.5C 95.3886,126.91 96.0552,129.41 96.5,132C 94.8851,139.42 93.8851,146.92 93.5,154.5C 92.5386,156.265 92.2053,158.265 92.5,160.5C 76.5,160.5 60.5,160.5 44.5,160.5C 44.5,151.167 44.5,141.833 44.5,132.5C 46.934,129.562 49.6007,126.729 52.5,124C 59.9011,119.3 67.5678,115.134 75.5,111.5 Z"/></g>
<g><path style="opacity:1" fill="#c9bda6" d="M 122.5,112.5 C 133.296,116.482 143.13,122.149 152,129.5C 155.603,139.58 158.103,149.913 159.5,160.5C 141.423,160.819 123.423,160.486 105.5,159.5C 104.72,150.482 103.72,141.482 102.5,132.5C 102.383,129.56 103.05,126.893 104.5,124.5C 105.764,126.27 107.264,127.937 109,129.5C 113.519,123.764 118.019,118.097 122.5,112.5 Z"/></g>
<g><path style="opacity:1" fill="#ef7079" d="M 223.5,120.5 C 226.898,120.18 230.232,120.513 233.5,121.5C 231.833,121.833 230.167,122.167 228.5,122.5C 226.36,122.444 224.694,121.777 223.5,120.5 Z"/></g>
<g><path style="opacity:1" fill="#f05358" d="M 249.5,111.5 C 250.103,113.19 251.103,114.69 252.5,116C 250.765,117.182 249.765,118.849 249.5,121C 250.625,122.963 251.959,124.796 253.5,126.5C 253.192,127.308 252.692,127.975 252,128.5C 251.804,126.714 250.971,125.381 249.5,124.5C 248.478,127.441 247.645,130.441 247,133.5C 246.51,132.207 246.343,130.873 246.5,129.5C 242.5,129.167 242.5,128.833 246.5,128.5C 246.519,126.94 246.852,125.44 247.5,124C 246.756,121.845 245.756,119.845 244.5,118C 245.207,115.46 246.873,114.293 249.5,114.5C 249.5,113.5 249.5,112.5 249.5,111.5 Z"/></g>
<g><path style="opacity:1" fill="#f0767e" d="M 223.5,123.5 C 226.898,123.18 230.232,123.513 233.5,124.5C 229.878,125.659 226.211,125.825 222.5,125C 223.056,124.617 223.389,124.117 223.5,123.5 Z"/></g>
<g><path style="opacity:1" fill="#f16367" d="M 193.5,124.5 C 190.876,122.802 190.876,120.969 193.5,119C 194.833,118.333 196.167,118.333 197.5,119C 198.373,120.045 199.373,120.878 200.5,121.5C 201.306,114.922 204.139,113.922 209,118.5C 209.582,122.251 211.749,123.918 215.5,123.5C 215.452,120.365 213.785,118.698 210.5,118.5C 212.611,117.152 214.445,117.485 216,119.5C 216.059,122.841 217.226,125.675 219.5,128C 219.355,128.772 219.022,129.439 218.5,130C 215.175,130.139 212.175,131.139 209.5,133C 202.842,133.5 196.175,133.666 189.5,133.5C 189.351,132.448 189.517,131.448 190,130.5C 191.635,129.274 193.135,127.941 194.5,126.5C 194.137,125.817 193.804,125.15 193.5,124.5 Z"/></g>
<g><path style="opacity:1" fill="#fae2e2" d="M 205.5,126.5 C 209.102,126.678 209.102,127.678 205.5,129.5C 206.729,130.281 208.062,130.781 209.5,131C 207.19,131.497 204.857,131.663 202.5,131.5C 202.31,129.041 203.31,127.374 205.5,126.5 Z"/></g>
<g><path style="opacity:1" fill="#fbe5e5" d="M 195.5,127.5 C 196.873,127.343 198.207,127.51 199.5,128C 200.451,128.718 200.617,129.551 200,130.5C 197.263,131.61 194.429,131.777 191.5,131C 193.093,130.051 194.426,128.885 195.5,127.5 Z"/></g>
<g><path style="opacity:1" fill="#fae7e7" d="M 211.5,125.5 C 214.226,125.264 216.559,126.097 218.5,128C 215.773,128.818 213.106,128.652 210.5,127.5C 210.863,126.817 211.196,126.15 211.5,125.5 Z"/></g>
<g><path style="opacity:1" fill="#f8e7e7" d="M 200.5,121.5 C 202.862,125.001 205.695,125.335 209,122.5C 210.045,123.373 210.878,124.373 211.5,125.5C 207.946,125.15 204.612,125.816 201.5,127.5C 200.5,127 199.5,126.5 198.5,126C 200.037,124.89 200.703,123.39 200.5,121.5 Z"/></g>
<g><path style="opacity:1" fill="#f6e4e4" d="M 193.5,124.5 C 193.5,123.167 193.5,121.833 193.5,120.5C 198.495,120.213 199.495,121.88 196.5,125.5C 195.583,124.873 194.583,124.539 193.5,124.5 Z"/></g>
<g><path style="opacity:1" fill="#f8f0f1" d="M 202.5,117.5 C 206.5,116.833 208.167,118.5 207.5,122.5C 205.833,122.5 204.167,122.5 202.5,122.5C 202.5,120.833 202.5,119.167 202.5,117.5 Z"/></g>
<g><path style="opacity:1" fill="#2b2626" d="M 104.5,124.5 C 103.05,126.893 102.383,129.56 102.5,132.5C 103.72,141.482 104.72,150.482 105.5,159.5C 101.702,160.483 97.7016,160.817 93.5,160.5C 93.5,158.5 93.5,156.5 93.5,154.5C 93.8851,146.92 94.8851,139.42 96.5,132C 96.0552,129.41 95.3886,126.91 94.5,124.5C 95.5198,122.648 97.0198,121.315 99,120.5C 100.981,121.65 102.814,122.984 104.5,124.5 Z"/></g>
<g><path style="opacity:1" fill="#a5998f" d="M 158.5,139.5 C 204.5,139.5 250.5,139.5 296.5,139.5C 296.5,140.167 296.5,140.833 296.5,141.5C 296.167,141.5 295.833,141.5 295.5,141.5C 286.014,140.506 276.348,140.173 266.5,140.5C 265.5,140.5 264.5,140.5 263.5,140.5C 240.5,140.5 217.5,140.5 194.5,140.5C 193.167,140.5 191.833,140.5 190.5,140.5C 179.654,140.828 168.987,140.494 158.5,139.5 Z"/></g>
<g><path style="opacity:1" fill="#645950" d="M 194.5,140.5 C 217.5,140.5 240.5,140.5 263.5,140.5C 263.5,147.167 263.5,153.833 263.5,160.5C 263.167,160.5 262.833,160.5 262.5,160.5C 262.5,154.167 262.5,147.833 262.5,141.5C 240.167,141.5 217.833,141.5 195.5,141.5C 195.5,147.833 195.5,154.167 195.5,160.5C 195.167,160.5 194.833,160.5 194.5,160.5C 194.5,153.833 194.5,147.167 194.5,140.5 Z"/></g>
<g><path style="opacity:1" fill="#d7effb" d="M 295.5,141.5 C 295.833,141.5 296.167,141.5 296.5,141.5C 296.5,147.833 296.5,154.167 296.5,160.5C 286.833,160.5 277.167,160.5 267.5,160.5C 267.5,154.167 267.5,147.833 267.5,141.5C 276.833,141.5 286.167,141.5 295.5,141.5 Z"/></g>
<g><path style="opacity:1" fill="#3f2412" d="M 190.5,141.5 C 190.5,141.167 190.5,140.833 190.5,140.5C 191.833,140.5 193.167,140.5 194.5,140.5C 194.5,147.167 194.5,153.833 194.5,160.5C 193.5,160.5 192.5,160.5 191.5,160.5C 191.823,153.978 191.49,147.645 190.5,141.5 Z"/></g>
<g><path style="opacity:1" fill="#412613" d="M 263.5,140.5 C 264.5,140.5 265.5,140.5 266.5,140.5C 266.5,147.167 266.5,153.833 266.5,160.5C 265.5,160.5 264.5,160.5 263.5,160.5C 263.5,153.833 263.5,147.167 263.5,140.5 Z"/></g>
<g><path style="opacity:1" fill="#6b7171" d="M 266.5,140.5 C 276.348,140.173 286.014,140.506 295.5,141.5C 286.167,141.5 276.833,141.5 267.5,141.5C 267.5,147.833 267.5,154.167 267.5,160.5C 277.167,160.5 286.833,160.5 296.5,160.5C 212.5,161.833 128.5,161.833 44.5,160.5C 60.5,160.5 76.5,160.5 92.5,160.5C 92.2053,158.265 92.5386,156.265 93.5,154.5C 93.5,156.5 93.5,158.5 93.5,160.5C 97.7016,160.817 101.702,160.483 105.5,159.5C 123.423,160.486 141.423,160.819 159.5,160.5C 169.833,160.5 180.167,160.5 190.5,160.5C 190.5,154.167 190.5,147.833 190.5,141.5C 191.49,147.645 191.823,153.978 191.5,160.5C 192.5,160.5 193.5,160.5 194.5,160.5C 194.833,160.5 195.167,160.5 195.5,160.5C 217.833,160.5 240.167,160.5 262.5,160.5C 262.833,160.5 263.167,160.5 263.5,160.5C 264.5,160.5 265.5,160.5 266.5,160.5C 266.5,153.833 266.5,147.167 266.5,140.5 Z"/></g>
<g><path style="opacity:1" fill="#d7effa" d="M 262.5,160.5 C 240.167,160.5 217.833,160.5 195.5,160.5C 195.5,154.167 195.5,147.833 195.5,141.5C 217.833,141.5 240.167,141.5 262.5,141.5C 262.5,147.833 262.5,154.167 262.5,160.5 Z"/></g>
<g><path style="opacity:1" fill="#dededf" d="M 301.5,167.5 C 214.5,167.5 127.5,167.5 40.5,167.5C 40.6219,171.838 40.9553,172.172 41.5,168.5C 84.5,168.5 127.5,168.5 170.5,168.5C 170.5,173.833 170.5,179.167 170.5,184.5C 127.33,184.168 84.3301,184.501 41.5,185.5C 39.5437,179.588 38.8771,173.255 39.5,166.5C 127.002,166.167 214.335,166.501 301.5,167.5 Z"/></g>
<g><path style="opacity:1" fill="#f1f1f1" d="M 301.5,167.5 C 301.5,173.5 301.5,179.5 301.5,185.5C 214.833,185.5 128.167,185.5 41.5,185.5C 84.3301,184.501 127.33,184.168 170.5,184.5C 170.5,179.167 170.5,173.833 170.5,168.5C 127.5,168.5 84.5,168.5 41.5,168.5C 40.9553,172.172 40.6219,171.838 40.5,167.5C 127.5,167.5 214.5,167.5 301.5,167.5 Z"/></g>
<g><path style="opacity:1" fill="#d3d3d5" d="M 273.5,170.5 C 281.635,169.754 289.968,169.421 298.5,169.5C 299.424,173.765 299.757,178.265 299.5,183C 291.803,183.021 283.803,183.187 275.5,183.5C 274.833,183.167 274.167,182.833 273.5,182.5C 273.561,178.439 273.561,174.439 273.5,170.5 Z"/></g>
<g><path style="opacity:1" fill="#7a797a" d="M -0.5,185.5 C 12.5,185.5 25.5,185.5 38.5,185.5C 126.5,186.833 214.5,186.833 302.5,185.5C 315.5,185.5 328.5,185.5 341.5,185.5C 341.5,190.5 341.5,195.5 341.5,200.5C 227.5,200.5 113.5,200.5 -0.5,200.5C -0.5,195.5 -0.5,190.5 -0.5,185.5 Z"/></g>
<g><path style="opacity:1" fill="#231f21" d="M 235.5,192.5 C 235.5,193.5 235.5,194.5 235.5,195.5C 192.167,195.5 148.833,195.5 105.5,195.5C 105.5,194.5 105.5,193.5 105.5,192.5C 148.833,192.5 192.167,192.5 235.5,192.5 Z"/></g>
<g><path style="opacity:1" fill="#f4f3f4" d="M 1.5,187.5 C 114.5,187.5 227.5,187.5 340.5,187.5C 340.5,191.167 340.5,194.833 340.5,198.5C 227.5,198.5 114.5,198.5 1.5,198.5C 79.5048,197.91 157.505,196.91 235.5,195.5C 235.5,194.5 235.5,193.5 235.5,192.5C 192.335,191.667 149.002,191.167 105.5,191C 127.174,190.833 148.841,190.333 170.5,189.5C 114.001,188.833 57.6681,188.167 1.5,187.5 Z"/></g>
<g><path style="opacity:1" fill="#e1e1e1" d="M 1.5,187.5 C 57.6681,188.167 114.001,188.833 170.5,189.5C 148.841,190.333 127.174,190.833 105.5,191C 149.002,191.167 192.335,191.667 235.5,192.5C 192.167,192.5 148.833,192.5 105.5,192.5C 105.5,193.5 105.5,194.5 105.5,195.5C 148.833,195.5 192.167,195.5 235.5,195.5C 157.505,196.91 79.5048,197.91 1.5,198.5C 0.166667,194.833 0.166667,191.167 1.5,187.5 Z"/></g>
</svg>
