<?xml version="1.0" encoding="UTF-8"?>
<!DOCTYPE svg PUBLIC "-//W3C//DTD SVG 1.1//EN" "http://www.w3.org/Graphics/SVG/1.1/DTD/svg11.dtd">
<svg xmlns="http://www.w3.org/2000/svg" version="1.1" width="342px" height="201px" style="shape-rendering:geometricPrecision; text-rendering:geometricPrecision; image-rendering:optimizeQuality; fill-rule:evenodd; clip-rule:evenodd" xmlns:xlink="http://www.w3.org/1999/xlink">
<g><path style="opacity:0.004" fill="#fefffe" d="M 38.5,-0.5 C 38.8333,-0.5 39.1667,-0.5 39.5,-0.5C 39.3147,0.170143 38.9813,0.170143 38.5,-0.5 Z"/></g>
<g><path style="opacity:0.004" fill="#fefffe" d="M 300.5,-0.5 C 300.833,-0.5 301.167,-0.5 301.5,-0.5C 301.315,0.170143 300.981,0.170143 300.5,-0.5 Z"/></g>
<g><path style="opacity:0.008" fill="#00807f" d="M 300.5,2.5 C 301.833,3.16667 301.833,3.16667 300.5,2.5 Z"/></g>
<g><path style="opacity:1" fill="#464647" d="M 44.5,-0.5 C 45.1667,-0.5 45.8333,-0.5 46.5,-0.5C 87.4946,0.833256 128.828,1.49992 170.5,1.5C 211.833,1.33333 253.167,1.16667 294.5,1C 211.999,0.83299 129.666,0.33299 47.5,-0.5C 130.833,-0.5 214.167,-0.5 297.5,-0.5C 297.393,1.37857 297.893,1.7119 299,0.5C 299.717,1.0442 300.217,1.71087 300.5,2.5C 299.167,2.83333 299.167,3.16667 300.5,3.5C 300.783,4.28913 301.283,4.9558 302,5.5C 302.5,65.4991 302.667,125.499 302.5,185.5C 214.5,186.833 126.5,186.833 38.5,185.5C 38.3333,125.166 38.5,64.8324 39,4.5C 40.8211,2.99149 42.6544,1.32483 44.5,-0.5 Z"/></g>
<g><path style="opacity:1" fill="#252424" d="M 46.5,-0.5 C 46.8333,-0.5 47.1667,-0.5 47.5,-0.5C 129.666,0.33299 211.999,0.83299 294.5,1C 253.167,1.16667 211.833,1.33333 170.5,1.5C 128.828,1.49992 87.4946,0.833256 46.5,-0.5 Z"/></g>
<g><path style="opacity:1" fill="#cbe6f3" d="M 296.5,11.5 C 279.095,10.8558 261.929,11.5224 245,13.5C 244.5,13 244,12.5 243.5,12C 226.837,11.5001 210.17,11.3334 193.5,11.5C 193.5,21.8333 193.5,32.1667 193.5,42.5C 210.321,42.0156 226.988,42.5156 243.5,44C 226.837,44.4999 210.17,44.6666 193.5,44.5C 193.5,54.8333 193.5,65.1667 193.5,75.5C 227.5,75.5 261.5,75.5 295.5,75.5C 295.173,65.3194 295.506,55.3194 296.5,45.5C 296.832,84.0036 296.499,122.337 295.5,160.5C 295.5,157.833 295.5,155.167 295.5,152.5C 211.833,152.5 128.167,152.5 44.5,152.5C 44.5,103.833 44.5,55.1667 44.5,6.5C 128.5,6.5 212.5,6.5 296.5,6.5C 296.5,8.16667 296.5,9.83333 296.5,11.5 Z"/></g>
<g><path style="opacity:1" fill="#fdfdfc" d="M 112.5,79.5 C 112.116,75.414 111.283,71.414 110,67.5C 105.265,62.8841 99.7651,60.0507 93.5,59C 91.6667,61.5 89.8333,64 88,66.5C 87.2917,65.6195 86.4584,64.9528 85.5,64.5C 85.1667,63.5 84.5,62.8333 83.5,62.5C 86.4289,58.3939 89.5956,54.3939 93,50.5C 93.7431,47.4888 95.0765,44.8221 97,42.5C 97.8119,38.3112 97.6453,34.3112 96.5,30.5C 90.9642,22.1957 83.6308,20.3624 74.5,25C 69.9517,29.1321 68.285,34.2987 69.5,40.5C 71.8162,49.1487 76.1496,56.482 82.5,62.5C 81.5,62.8333 80.8333,63.5 80.5,64.5C 79.5416,64.9528 78.7083,65.6195 78,66.5C 75.6586,63.3291 73.1586,60.3291 70.5,57.5C 64.0805,59.9509 58.9139,63.9509 55,69.5C 54.0036,73.8157 53.1703,78.1491 52.5,82.5C 51.1667,82.5 49.8333,82.5 48.5,82.5C 48.5,59.5 48.5,36.5 48.5,13.5C 71.5,13.5 94.5,13.5 117.5,13.5C 117.5,36.5 117.5,59.5 117.5,82.5C 116.167,82.5 114.833,82.5 113.5,82.5C 113.737,81.209 113.404,80.209 112.5,79.5 Z"/></g>
<g><path style="opacity:1" fill="#633b18" d="M 96.5,30.5 C 96.8134,33.2469 96.48,35.9135 95.5,38.5C 94.5465,36.0918 93.2132,33.9251 91.5,32C 90.5509,31.3828 89.7175,31.5494 89,32.5C 88.6121,31.572 87.9454,30.9054 87,30.5C 85.2158,31.3091 83.3825,31.9757 81.5,32.5C 79.8453,31.772 78.1786,31.6053 76.5,32C 73.7679,34.7085 71.4346,37.5419 69.5,40.5C 68.285,34.2987 69.9517,29.1321 74.5,25C 83.6308,20.3624 90.9642,22.1957 96.5,30.5 Z"/></g>
<g><path style="opacity:1" fill="#f3d4c1" d="M 96.5,30.5 C 97.6453,34.3112 97.8119,38.3112 97,42.5C 95.0765,44.8221 93.7431,47.4888 93,50.5C 89.5956,54.3939 86.4289,58.3939 83.5,62.5C 83.1667,62.5 82.8333,62.5 82.5,62.5C 76.1496,56.482 71.8162,49.1487 69.5,40.5C 71.4346,37.5419 73.7679,34.7085 76.5,32C 78.1786,31.6053 79.8453,31.772 81.5,32.5C 83.3825,31.9757 85.2158,31.3091 87,30.5C 87.9454,30.9054 88.6121,31.572 89,32.5C 89.7175,31.5494 90.5509,31.3828 91.5,32C 93.2132,33.9251 94.5465,36.0918 95.5,38.5C 96.48,35.9135 96.8134,33.2469 96.5,30.5 Z"/></g>
<g><path style="opacity:1" fill="#c1d9e6" d="M 296.5,11.5 C 296.5,22.8333 296.5,34.1667 296.5,45.5C 295.506,55.3194 295.173,65.3194 295.5,75.5C 261.5,75.5 227.5,75.5 193.5,75.5C 193.5,65.1667 193.5,54.8333 193.5,44.5C 210.17,44.6666 226.837,44.4999 243.5,44C 226.988,42.5156 210.321,42.0156 193.5,42.5C 193.5,32.1667 193.5,21.8333 193.5,11.5C 210.17,11.3334 226.837,11.5001 243.5,12C 244,12.5 244.5,13 245,13.5C 261.929,11.5224 279.095,10.8558 296.5,11.5 Z"/></g>
<g><path style="opacity:1" fill="#eef3f9" d="M 246.5,13.5 C 262.5,13.5 278.5,13.5 294.5,13.5C 294.818,22.7506 294.485,31.9172 293.5,41C 277.837,41.4999 262.17,41.6666 246.5,41.5C 246.5,32.1667 246.5,22.8333 246.5,13.5 Z"/></g>
<g><path style="opacity:1" fill="#eef3f9" d="M 195.5,13.5 C 211.167,13.5 226.833,13.5 242.5,13.5C 242.5,22.8333 242.5,32.1667 242.5,41.5C 226.833,41.5 211.167,41.5 195.5,41.5C 195.5,32.1667 195.5,22.8333 195.5,13.5 Z"/></g>
<g><path style="opacity:1" fill="#eef3f9" d="M 195.5,46.5 C 211.167,46.5 226.833,46.5 242.5,46.5C 242.5,55.8333 242.5,65.1667 242.5,74.5C 226.833,74.5 211.167,74.5 195.5,74.5C 195.5,65.1667 195.5,55.8333 195.5,46.5 Z"/></g>
<g><path style="opacity:1" fill="#eef3f9" d="M 246.5,46.5 C 262.5,46.5 278.5,46.5 294.5,46.5C 294.818,55.7506 294.485,64.9172 293.5,74C 277.837,74.4999 262.17,74.6666 246.5,74.5C 246.5,65.1667 246.5,55.8333 246.5,46.5 Z"/></g>
<g><path style="opacity:1" fill="#c1b39a" d="M 112.5,79.5 C 112.5,80.5 112.5,81.5 112.5,82.5C 103.833,82.5 95.1667,82.5 86.5,82.5C 86.7845,80.5853 86.4511,78.9187 85.5,77.5C 84.6796,73.1153 84.6796,68.7819 85.5,64.5C 86.4584,64.9528 87.2917,65.6195 88,66.5C 89.8333,64 91.6667,61.5 93.5,59C 99.7651,60.0507 105.265,62.8841 110,67.5C 111.283,71.414 112.116,75.414 112.5,79.5 Z"/></g>
<g><path style="opacity:1" fill="#c2b49b" d="M 80.5,64.5 C 80.6775,65.6948 81.0109,66.8615 81.5,68C 80.4129,72.7762 79.7463,77.6095 79.5,82.5C 70.5,82.5 61.5,82.5 52.5,82.5C 53.1703,78.1491 54.0036,73.8157 55,69.5C 58.9139,63.9509 64.0805,59.9509 70.5,57.5C 73.1586,60.3291 75.6586,63.3291 78,66.5C 78.7083,65.6195 79.5416,64.9528 80.5,64.5 Z"/></g>
<g><path style="opacity:1" fill="#2a2625" d="M 82.5,62.5 C 82.8333,62.5 83.1667,62.5 83.5,62.5C 84.5,62.8333 85.1667,63.5 85.5,64.5C 84.6796,68.7819 84.6796,73.1153 85.5,77.5C 85.5,79.1667 85.5,80.8333 85.5,82.5C 83.5,82.5 81.5,82.5 79.5,82.5C 79.7463,77.6095 80.4129,72.7762 81.5,68C 81.0109,66.8615 80.6775,65.6948 80.5,64.5C 80.8333,63.5 81.5,62.8333 82.5,62.5 Z"/></g>
<g><path style="opacity:1" fill="#eff4fa" d="M 195.5,79.5 C 211.167,79.5 226.833,79.5 242.5,79.5C 242.5,88.5 242.5,97.5 242.5,106.5C 226.833,106.5 211.167,106.5 195.5,106.5C 195.5,97.5 195.5,88.5 195.5,79.5 Z"/></g>
<g><path style="opacity:1" fill="#eef3f9" d="M 246.5,79.5 C 262.5,79.5 278.5,79.5 294.5,79.5C 294.5,88.5 294.5,97.5 294.5,106.5C 278.5,106.5 262.5,106.5 246.5,106.5C 246.5,97.5 246.5,88.5 246.5,79.5 Z"/></g>
<g><path style="opacity:1" fill="#aec5d2" d="M 48.5,98.5 C 72.1761,98.1669 95.8427,98.5003 119.5,99.5C 107.667,99.8333 95.8333,100.167 84,100.5C 71.8139,100.499 59.9806,99.8324 48.5,98.5 Z"/></g>
<g><path style="opacity:1" fill="#eef3f9" d="M 195.5,111.5 C 211.167,111.5 226.833,111.5 242.5,111.5C 242.5,120.833 242.5,130.167 242.5,139.5C 226.833,139.5 211.167,139.5 195.5,139.5C 195.5,130.167 195.5,120.833 195.5,111.5 Z"/></g>
<g><path style="opacity:1" fill="#edf3f9" d="M 246.5,111.5 C 262.17,111.333 277.837,111.5 293.5,112C 294.485,121.083 294.818,130.249 294.5,139.5C 278.5,139.5 262.5,139.5 246.5,139.5C 246.5,130.167 246.5,120.833 246.5,111.5 Z"/></g>
<g><path style="opacity:1" fill="#c0dae7" d="M 44.5,152.5 C 128.167,152.5 211.833,152.5 295.5,152.5C 295.5,155.167 295.5,157.833 295.5,160.5C 211.833,160.5 128.167,160.5 44.5,160.5C 44.5,157.833 44.5,155.167 44.5,152.5 Z"/></g>
<g><path style="opacity:1" fill="#dededf" d="M 301.5,167.5 C 214.5,167.5 127.5,167.5 40.5,167.5C 40.6219,171.838 40.9553,172.172 41.5,168.5C 84.5,168.5 127.5,168.5 170.5,168.5C 170.5,173.833 170.5,179.167 170.5,184.5C 127.33,184.168 84.3301,184.501 41.5,185.5C 39.5437,179.588 38.8771,173.255 39.5,166.5C 127.002,166.167 214.335,166.501 301.5,167.5 Z"/></g>
<g><path style="opacity:1" fill="#f1f1f1" d="M 301.5,167.5 C 301.5,173.5 301.5,179.5 301.5,185.5C 214.833,185.5 128.167,185.5 41.5,185.5C 84.3301,184.501 127.33,184.168 170.5,184.5C 170.5,179.167 170.5,173.833 170.5,168.5C 127.5,168.5 84.5,168.5 41.5,168.5C 40.9553,172.172 40.6219,171.838 40.5,167.5C 127.5,167.5 214.5,167.5 301.5,167.5 Z"/></g>
<g><path style="opacity:1" fill="#d3d3d5" d="M 273.5,170.5 C 281.635,169.754 289.968,169.421 298.5,169.5C 299.424,173.765 299.757,178.265 299.5,183C 291.803,183.021 283.803,183.187 275.5,183.5C 274.833,183.167 274.167,182.833 273.5,182.5C 273.561,178.439 273.561,174.439 273.5,170.5 Z"/></g>
<g><path style="opacity:1" fill="#7a797a" d="M -0.5,185.5 C 12.5,185.5 25.5,185.5 38.5,185.5C 126.5,186.833 214.5,186.833 302.5,185.5C 315.5,185.5 328.5,185.5 341.5,185.5C 341.5,190.5 341.5,195.5 341.5,200.5C 227.5,200.5 113.5,200.5 -0.5,200.5C -0.5,195.5 -0.5,190.5 -0.5,185.5 Z"/></g>
<g><path style="opacity:1" fill="#231f21" d="M 235.5,192.5 C 235.5,193.5 235.5,194.5 235.5,195.5C 192.167,195.5 148.833,195.5 105.5,195.5C 105.5,194.5 105.5,193.5 105.5,192.5C 148.833,192.5 192.167,192.5 235.5,192.5 Z"/></g>
<g><path style="opacity:1" fill="#f4f3f4" d="M 1.5,187.5 C 114.5,187.5 227.5,187.5 340.5,187.5C 340.5,191.167 340.5,194.833 340.5,198.5C 227.5,198.5 114.5,198.5 1.5,198.5C 79.5048,197.91 157.505,196.91 235.5,195.5C 235.5,194.5 235.5,193.5 235.5,192.5C 192.335,191.667 149.002,191.167 105.5,191C 127.174,190.833 148.841,190.333 170.5,189.5C 114.001,188.833 57.6681,188.167 1.5,187.5 Z"/></g>
<g><path style="opacity:1" fill="#e1e1e1" d="M 1.5,187.5 C 57.6681,188.167 114.001,188.833 170.5,189.5C 148.841,190.333 127.174,190.833 105.5,191C 149.002,191.167 192.335,191.667 235.5,192.5C 192.167,192.5 148.833,192.5 105.5,192.5C 105.5,193.5 105.5,194.5 105.5,195.5C 148.833,195.5 192.167,195.5 235.5,195.5C 157.505,196.91 79.5048,197.91 1.5,198.5C 0.166667,194.833 0.166667,191.167 1.5,187.5 Z"/></g>
</svg>
